<?xml version="1.0" encoding="UTF-8"?>
<svg xmlns="http://www.w3.org/2000/svg" xmlns:xlink="http://www.w3.org/1999/xlink" width="36px" height="36px" viewBox="0 0 36 36" version="1.1">
<g id="surface1">
<path style=" stroke:none;fill-rule:nonzero;fill:rgb(94.901961%,0%,7.45098%);fill-opacity:1;" d="M 9.8125 31.683594 L 1.199219 31.683594 C 0.667969 31.683594 0.238281 31.253906 0.238281 30.722656 L 0.238281 27.367188 C 0.238281 26.835938 0.667969 26.40625 1.199219 26.40625 L 9.8125 26.40625 C 10.34375 26.40625 10.773438 26.835938 10.773438 27.367188 L 10.773438 30.722656 C 10.773438 31.253906 10.34375 31.683594 9.8125 31.683594 Z M 9.8125 31.683594 "/>
<path style=" stroke:none;fill-rule:nonzero;fill:rgb(100%,29.411765%,0%);fill-opacity:1;" d="M 22.453125 31.683594 L 13.839844 31.683594 C 13.3125 31.683594 12.882812 31.253906 12.882812 30.722656 L 12.882812 27.367188 C 12.882812 26.835938 13.3125 26.40625 13.839844 26.40625 L 22.453125 26.40625 C 22.984375 26.40625 23.414062 26.835938 23.414062 27.367188 L 23.414062 30.722656 C 23.414062 31.253906 22.984375 31.683594 22.453125 31.683594 Z M 22.453125 31.683594 "/>
<path style=" stroke:none;fill-rule:nonzero;fill:rgb(100%,29.411765%,0%);fill-opacity:1;" d="M 16.082031 24.3125 L 7.46875 24.3125 C 6.9375 24.3125 6.507812 23.882812 6.507812 23.351562 L 6.507812 19.996094 C 6.507812 19.464844 6.9375 19.035156 7.46875 19.035156 L 16.082031 19.035156 C 16.609375 19.035156 17.039062 19.464844 17.039062 19.996094 L 17.039062 23.351562 C 17.039062 23.882812 16.609375 24.3125 16.082031 24.3125 Z M 16.082031 24.3125 "/>
<path style=" stroke:none;fill-rule:nonzero;fill:rgb(100%,29.411765%,0%);fill-opacity:1;" d="M 3.546875 19.035156 L 0 19.035156 L 0 24.3125 L 3.546875 24.3125 C 4.011719 24.3125 4.386719 23.9375 4.386719 23.472656 L 4.386719 19.875 C 4.386719 19.410156 4.011719 19.035156 3.546875 19.035156 Z M 3.546875 19.035156 "/>
<path style=" stroke:none;fill-rule:nonzero;fill:rgb(94.901961%,0%,7.45098%);fill-opacity:1;" d="M 28.804688 24.3125 L 20.191406 24.3125 C 19.660156 24.3125 19.230469 23.882812 19.230469 23.351562 L 19.230469 19.996094 C 19.230469 19.464844 19.660156 19.035156 20.191406 19.035156 L 28.804688 19.035156 C 29.335938 19.035156 29.765625 19.464844 29.765625 19.996094 L 29.765625 23.351562 C 29.765625 23.882812 29.335938 24.3125 28.804688 24.3125 Z M 28.804688 24.3125 "/>
<path style=" stroke:none;fill-rule:nonzero;fill:rgb(100%,29.411765%,0%);fill-opacity:1;" d="M 35.039062 31.683594 L 26.425781 31.683594 C 25.894531 31.683594 25.464844 31.253906 25.464844 30.722656 L 25.464844 27.367188 C 25.464844 26.835938 25.894531 26.40625 26.425781 26.40625 L 35.039062 26.40625 C 35.570312 26.40625 36 26.835938 36 27.367188 L 36 30.722656 C 36 31.253906 35.570312 31.683594 35.039062 31.683594 Z M 35.039062 31.683594 "/>
<path style=" stroke:none;fill-rule:nonzero;fill:rgb(94.901961%,0%,7.45098%);fill-opacity:1;" d="M 9.578125 16.964844 L 0.96875 16.964844 C 0.4375 16.964844 0.0078125 16.535156 0.0078125 16.003906 L 0.0078125 12.648438 C 0.0078125 12.117188 0.4375 11.6875 0.96875 11.6875 L 9.578125 11.6875 C 10.109375 11.6875 10.539062 12.117188 10.539062 12.648438 L 10.539062 16.003906 C 10.539062 16.535156 10.109375 16.964844 9.578125 16.964844 Z M 9.578125 16.964844 "/>
<path style=" stroke:none;fill-rule:nonzero;fill:rgb(100%,29.411765%,0%);fill-opacity:1;" d="M 22.222656 16.964844 L 13.609375 16.964844 C 13.078125 16.964844 12.648438 16.535156 12.648438 16.003906 L 12.648438 12.648438 C 12.648438 12.117188 13.078125 11.6875 13.609375 11.6875 L 22.222656 11.6875 C 22.753906 11.6875 23.183594 12.117188 23.183594 12.648438 L 23.183594 16.003906 C 23.183594 16.535156 22.753906 16.964844 22.222656 16.964844 Z M 22.222656 16.964844 "/>
<path style=" stroke:none;fill-rule:nonzero;fill:rgb(94.901961%,0%,7.45098%);fill-opacity:1;" d="M 15.847656 9.59375 L 7.234375 9.59375 C 6.707031 9.59375 6.277344 9.164062 6.277344 8.632812 L 6.277344 5.277344 C 6.277344 4.746094 6.707031 4.316406 7.234375 4.316406 L 15.847656 4.316406 C 16.378906 4.316406 16.808594 4.746094 16.808594 5.277344 L 16.808594 8.632812 C 16.808594 9.164062 16.378906 9.59375 15.847656 9.59375 Z M 15.847656 9.59375 "/>
<path style=" stroke:none;fill-rule:nonzero;fill:rgb(100%,29.411765%,0%);fill-opacity:1;" d="M 3.316406 4.316406 L 0 4.316406 L 0 9.59375 L 3.316406 9.59375 C 3.777344 9.59375 4.15625 9.21875 4.15625 8.753906 L 4.15625 5.15625 C 4.152344 4.691406 3.777344 4.316406 3.316406 4.316406 Z M 3.316406 4.316406 "/>
</g>
</svg>
